<?xml version="1.0" standalone="no"?>
<!DOCTYPE svg PUBLIC "-//W3C//DTD SVG 20010904//EN"
 "http://www.w3.org/TR/2001/REC-SVG-20010904/DTD/svg10.dtd">
<svg version="1.0" xmlns="http://www.w3.org/2000/svg"
 width="500.000000pt" height="500.000000pt" viewBox="0 0 500.000000 500.000000"
 preserveAspectRatio="xMidYMid meet">
<metadata>
Created by potrace 1.14, written by Peter Selinger 2001-2017
</metadata>
<g transform="translate(0.000000,500.000000) scale(0.100000,-0.100000)"
fill="#000000" stroke="none">
<path d="M2331 4524 c-1 -6 -16 -11 -33 -12 -18 -1 -51 -8 -73 -16 -22 -8 -48
-12 -57 -11 -10 2 -18 0 -18 -6 0 -5 -5 -9 -11 -9 -5 0 -7 6 -3 13 6 8 3 8 -9
-1 -9 -8 -22 -10 -28 -6 -9 5 -10 2 -5 -11 6 -15 4 -16 -10 -5 -13 12 -17 11
-25 -1 -7 -11 -9 -11 -9 0 0 10 -3 11 -13 2 -8 -6 -17 -8 -20 -4 -4 3 -7 1 -7
-6 0 -7 -6 -11 -12 -9 -7 3 -19 -2 -27 -9 -11 -12 -15 -12 -22 -1 -5 7 -9 8
-9 3 0 -10 -15 -14 -62 -16 -10 0 -18 -5 -18 -10 0 -6 -4 -8 -9 -4 -5 3 -12 1
-16 -4 -3 -6 -12 -8 -21 -4 -9 3 -14 0 -12 -7 2 -7 -5 -14 -14 -15 -10 -2 -25
-10 -34 -19 -8 -9 -19 -14 -23 -11 -5 2 -7 -7 -5 -20 1 -14 -1 -25 -5 -25 -5
0 -13 -10 -19 -22 l-10 -23 1 23 c1 12 5 22 9 22 4 0 8 7 8 16 0 43 -52 -58
-56 -110 -1 -10 -8 -22 -15 -27 -10 -6 -11 -9 -1 -9 14 0 12 -21 -3 -32 -6 -5
-6 -8 1 -8 6 0 11 -13 12 -28 0 -15 1 -32 2 -37 5 -23 -1 -43 -12 -42 -7 0
-22 -1 -32 -1 -18 -2 -18 -3 2 -21 23 -19 31 -40 10 -24 -7 5 -23 10 -35 11
-16 0 -21 -4 -19 -22 2 -13 7 -29 11 -36 6 -10 4 -12 -10 -7 -14 6 -17 3 -13
-17 4 -17 1 -23 -9 -19 -8 3 -13 -2 -13 -16 0 -12 5 -21 10 -21 6 0 10 -5 10
-12 0 -6 -3 -8 -7 -5 -12 12 -35 -32 -28 -54 4 -13 3 -19 -2 -16 -6 4 -10 -6
-11 -21 0 -15 -3 -49 -6 -77 -11 -90 -12 -115 -6 -115 3 0 5 -18 3 -40 -1 -29
1 -39 10 -33 9 5 9 3 1 -8 -11 -14 -11 -25 1 -164 3 -38 8 -92 10 -120 5 -61
12 -104 26 -172 6 -29 10 -56 9 -59 -1 -4 3 -10 10 -14 7 -4 -2 -16 -24 -31
-20 -13 -36 -29 -36 -36 0 -6 -5 -13 -11 -15 -21 -7 -32 -183 -14 -225 4 -10
10 -26 12 -36 2 -10 9 -28 15 -40 7 -12 11 -25 10 -29 -3 -12 98 -108 114
-108 8 0 14 -5 14 -11 0 -5 5 -7 10 -4 6 3 10 3 10 -2 0 -4 14 -14 30 -21 17
-8 28 -18 24 -23 -3 -5 -1 -9 4 -9 5 0 12 -15 16 -32 16 -86 26 -157 31 -218
2 -25 4 -45 5 -45 2 0 8 -89 11 -162 2 -70 -9 -88 -95 -158 -27 -22 -54 -49
-60 -60 -6 -11 -13 -22 -17 -25 -3 -3 -15 -21 -27 -42 -12 -20 -40 -52 -62
-72 -22 -20 -40 -41 -40 -47 0 -5 -4 -8 -9 -5 -5 3 -21 -6 -36 -20 -15 -14
-37 -30 -49 -35 -40 -19 -71 -38 -81 -52 -5 -8 -21 -17 -34 -22 -13 -4 -85
-35 -160 -70 -75 -34 -176 -79 -226 -100 -49 -21 -91 -42 -93 -47 -2 -4 -9 -8
-16 -8 -7 0 -37 -13 -67 -29 -30 -16 -101 -45 -159 -64 -58 -20 -126 -44 -152
-55 -84 -37 -203 -96 -209 -105 -3 -5 -8 -8 -10 -8 -10 1 -49 -12 -109 -38
l-65 -28 -3 -401 -2 -402 2210 0 2210 0 0 28 c-1 15 -5 47 -11 72 -23 105 -30
150 -34 230 -3 47 -7 96 -11 110 -3 14 -9 41 -13 60 -7 32 -39 111 -73 182 -7
16 -16 28 -20 28 -5 0 -8 6 -8 14 0 31 -143 146 -172 138 -5 -1 -8 2 -8 7 0 4
-30 23 -67 41 -96 46 -372 185 -538 269 -77 39 -146 71 -152 71 -7 0 -13 5
-13 10 0 6 -6 10 -14 10 -14 0 -32 36 -28 54 2 4 -2 14 -8 20 -5 7 -8 15 -5
18 10 10 -83 208 -97 208 -5 0 -8 7 -8 15 0 20 -20 55 -47 82 -12 12 -25 34
-27 49 -7 38 13 104 32 104 9 0 13 3 9 6 -3 3 7 20 23 38 17 17 30 34 30 38 0
4 11 19 25 34 13 14 22 30 20 34 -3 4 2 11 11 14 9 4 14 9 11 12 -3 4 3 15 14
27 10 11 19 28 19 37 0 9 4 20 9 26 9 9 45 110 46 129 1 6 5 21 10 35 4 14 9
36 11 50 1 14 3 25 4 25 2 0 9 51 15 110 2 28 9 68 15 90 24 95 31 317 13 400
-7 33 -15 96 -16 140 -2 44 -6 92 -9 108 -3 15 -2 27 1 27 20 0 18 363 -2 404
-7 14 -6 16 4 11 8 -6 10 -4 4 6 -5 7 -10 32 -11 54 -2 22 -5 68 -8 102 -3 41
0 64 7 67 9 3 8 5 0 5 -7 1 -13 5 -13 11 0 5 3 9 8 9 21 -4 24 3 6 17 -16 13
-16 15 -1 10 21 -7 23 10 2 18 -8 3 -12 12 -9 21 3 8 10 13 14 10 5 -3 12 0
16 6 4 7 3 10 -2 7 -5 -3 -16 1 -23 10 -13 14 -12 15 10 9 13 -4 28 -7 32 -7
5 0 6 -4 3 -8 -3 -5 2 -9 11 -9 13 0 12 4 -5 17 -16 14 -18 20 -9 30 9 10 9
11 -2 5 -11 -6 -13 -4 -8 8 4 11 -1 17 -15 19 -12 2 -23 9 -26 16 -3 11 0 12
14 4 11 -5 25 -7 31 -5 7 3 16 -2 19 -11 3 -9 10 -13 15 -10 5 3 9 0 9 -6 0
-6 4 -9 8 -6 5 3 22 -2 38 -10 l29 -14 -27 24 c-16 14 -28 30 -28 36 0 14 -17
13 -23 -2 -3 -8 -6 -5 -6 5 -1 12 -6 16 -13 11 -7 -4 -10 -4 -6 1 4 4 2 15 -4
24 -10 12 -8 12 8 -1 11 -10 29 -18 39 -18 18 0 13 14 -6 16 -22 3 -23 5 -9
14 9 5 19 5 25 0 8 -7 12 -5 12 5 0 8 -7 17 -14 19 -8 4 -11 11 -7 18 6 10 5
11 -8 1 -12 -11 -18 -9 -33 7 -9 10 -15 26 -12 34 4 10 1 13 -9 9 -7 -3 -14
-10 -14 -17 0 -6 -5 -4 -10 4 -5 8 -10 11 -10 6 0 -5 -6 -3 -14 3 -8 7 -13 20
-11 31 3 14 -1 17 -18 12 -12 -3 -19 -1 -15 3 8 8 -20 34 -37 35 -5 0 -3 -5 5
-10 11 -8 7 -10 -16 -8 -29 2 -31 4 -20 23 6 11 16 23 21 27 21 16 -7 7 -33
-9 l-27 -18 20 26 c11 15 23 25 26 23 3 -1 5 6 4 18 -2 22 -12 26 -93 32 -23
2 -45 6 -48 8 -5 6 -111 1 -156 -7 -16 -2 -28 0 -28 6 0 6 -6 6 -19 0 -10 -6
-21 -7 -25 -4 -3 4 -23 8 -43 10 -20 2 -42 7 -48 12 -5 4 -26 8 -45 10 -19 2
-37 6 -40 10 -3 3 -16 8 -30 10 -14 1 -28 8 -31 13 -4 6 -14 8 -23 5 -9 -4
-16 -2 -16 4 0 6 -7 9 -15 5 -8 -3 -15 -1 -15 5 0 6 -4 8 -9 5 -5 -3 -20 5
-34 18 -32 30 -52 37 -66 23 -8 -8 -11 -8 -11 0 0 6 -14 10 -31 9 -16 -1 -33
2 -35 6 -3 5 -12 4 -19 -2 -10 -8 -14 -7 -18 2 -3 7 -6 8 -6 2z m150 -31 c13
-16 12 -17 -3 -4 -17 13 -22 21 -14 21 2 0 10 -8 17 -17z m722 -152 c4 -1 7
-5 7 -9 0 -4 -16 -6 -35 -4 -19 2 -33 7 -30 11 2 4 14 7 27 5 13 -1 26 -3 31
-3z"/>
<path d="M2515 4500 c-3 -5 -1 -10 4 -10 6 0 11 5 11 10 0 6 -2 10 -4 10 -3 0
-8 -4 -11 -10z"/>
<path d="M3335 4200 c3 -5 8 -10 11 -10 2 0 4 5 4 10 0 6 -5 10 -11 10 -5 0
-7 -4 -4 -10z"/>
<path d="M3415 4150 c3 -5 8 -10 11 -10 2 0 4 5 4 10 0 6 -5 10 -11 10 -5 0
-7 -4 -4 -10z"/>
</g>
</svg>
